<svg id="Instagram_icon" data-name="Instagram icon" xmlns="http://www.w3.org/2000/svg" width="25" height="25" viewBox="0 0 25 25">
  <circle id="Ellipse_132" data-name="Ellipse 132" cx="12.5" cy="12.5" r="12.5" transform="translate(0 0)" fill="#2c5364"/>
  <path id="Tracé_1886" data-name="Tracé 1886" d="M46.158,22.74a.868.868,0,1,0,.868.868A.868.868,0,0,0,46.158,22.74Z" transform="translate(-29.782 -14.974)" fill="#fff"/>
  <path id="Tracé_1887" data-name="Tracé 1887" d="M29.813,25.94a3.649,3.649,0,1,0,3.646,3.649,3.649,3.649,0,0,0-3.646-3.649Zm0,5.986a2.337,2.337,0,1,1,2.333-2.337A2.337,2.337,0,0,1,29.813,31.926Z" transform="translate(-17.251 -17.106)" fill="#fff"/>
  <path id="Tracé_1888" data-name="Tracé 1888" d="M25.343,29.669h-5.8A4.376,4.376,0,0,1,15.17,25.31v-5.8a4.376,4.376,0,0,1,4.375-4.393h5.8a4.376,4.376,0,0,1,4.375,4.369V25.31A4.375,4.375,0,0,1,25.343,29.669Zm-5.8-13.181a3,3,0,0,0-3,3V25.31a3,3,0,0,0,3,3h5.8a3,3,0,0,0,3-3v-5.8a3,3,0,0,0-3-3Z" transform="translate(-9.944 -9.912)" fill="#fff"/>
</svg>
