<svg xmlns="http://www.w3.org/2000/svg" width="25" height="25" viewBox="0 0 25 25">
  <g id="Groupe_7538" data-name="Groupe 7538" transform="translate(-1490.999 -117)">
    <ellipse id="Ellipse_135" data-name="Ellipse 135" cx="11.5" cy="12" rx="11.5" ry="12" transform="translate(1492 118)" fill="#fff"/>
    <g id="Facebook_icon" data-name="Facebook icon" transform="translate(1491.002 116.994)">
      <path id="Tracé_1884" data-name="Tracé 1884" d="M25.117,12.623A12.5,12.5,0,1,0,10.666,24.972V16.231H7.492V12.623h3.175V9.875c0-3.13,1.866-4.862,4.721-4.862a19.21,19.21,0,0,1,2.8.223V8.328H16.607a1.808,1.808,0,0,0-2.037,1.955v2.34h3.467l-.553,3.608H14.569v8.741A12.5,12.5,0,0,0,25.117,12.623Z" transform="translate(-0.12 -0.12)" fill="#2c5364"/>
    </g>
  </g>
</svg>
