<svg xmlns="http://www.w3.org/2000/svg" width="36" height="35.778" viewBox="0 0 36 35.778">
  <g id="Groupe_1651" data-name="Groupe 1651" transform="translate(-0.001 -1)">
    <path id="Tracé_1898" data-name="Tracé 1898" d="M17,0A17.255,17.255,0,0,1,34,17.5,17.255,17.255,0,0,1,17,35,17.255,17.255,0,0,1,0,17.5,17.255,17.255,0,0,1,17,0Z" transform="translate(1.001 1)" fill="#cdd4de"/>
    <g id="Facebook_icon" data-name="Facebook icon" transform="translate(-21.999 -38)" opacity="0.42">
      <path id="Tracé_1884" data-name="Tracé 1884" d="M36.117,18.122A18,18,0,1,0,15.308,35.9V23.317H10.736V18.122h4.572V14.164c0-4.507,2.687-7,6.8-7a27.662,27.662,0,0,1,4.027.322v4.453H23.862a2.6,2.6,0,0,0-2.934,2.815v3.369H25.92l-.8,5.195h-4.2V35.9A18,18,0,0,0,36.117,18.122Z" transform="translate(21.883 38.874)" fill="#2c5364" opacity="0.65"/>
    </g>
  </g>
</svg>
