<svg id="Twitter_icon" data-name="Twitter icon" xmlns="http://www.w3.org/2000/svg" width="25" height="25" viewBox="0 0 25 25">
  <circle id="Ellipse_133" data-name="Ellipse 133" cx="12.5" cy="12.5" r="12.5" transform="translate(0 0)" fill="#2c5364"/>
  <path id="Tracé_1889" data-name="Tracé 1889" d="M30.545,21.456a5.514,5.514,0,0,1-1.362.4c.218-.038.542-.444.681-.608a2.551,2.551,0,0,0,.439-.833c0-.024.02-.056,0-.073a.087.087,0,0,0-.072,0,7,7,0,0,1-1.621.632.1.1,0,0,1-.109-.031,1.431,1.431,0,0,0-.143-.146,2.811,2.811,0,0,0-.783-.49,2.678,2.678,0,0,0-1.206-.2,2.792,2.792,0,0,0-1.141.326,3.006,3.006,0,0,0-.923.767,2.9,2.9,0,0,0-.548,1.125,3.1,3.1,0,0,0-.034,1.212c0,.066,0,.073-.054.066A8.641,8.641,0,0,1,18.1,20.716c-.065-.076-.1-.076-.153,0a2.916,2.916,0,0,0,.48,3.4c.109.1.221.208.341.306a2.822,2.822,0,0,1-1.076-.306c-.065-.042-.1-.017-.1.056a1.794,1.794,0,0,0,.017.326,2.9,2.9,0,0,0,1.761,2.319,1.616,1.616,0,0,0,.341.111,3.1,3.1,0,0,1-1.052.035c-.078,0-.106.024-.078.1a2.986,2.986,0,0,0,2.214,1.892.764.764,0,0,1,.3.042h0a3.486,3.486,0,0,1-1.512.816,5.352,5.352,0,0,1-2.3.3c-.126-.021-.15-.017-.184,0s0,.049.034.083c.157.1.317.2.48.288a7.538,7.538,0,0,0,1.533.625,8.057,8.057,0,0,0,7.939-1.892,8.581,8.581,0,0,0,2.2-6.194c0-.087.1-.139.163-.184a5.341,5.341,0,0,0,1.08-1.146.352.352,0,0,0,.072-.219h0C30.6,21.431,30.6,21.456,30.545,21.456Z" transform="translate(-11.197 -13.296)" fill="#fff"/>
</svg>
