<svg xmlns="http://www.w3.org/2000/svg" width="25" height="25" viewBox="0 0 25 25">
  <g id="whatsapp_Icon" data-name="whatsapp Icon" transform="translate(-0.005 -0.002)">
    <circle id="Ellipse_134" data-name="Ellipse 134" cx="12.5" cy="12.5" r="12.5" transform="matrix(1, 0, 0, 1, 0.005, 0.002)" fill="#2c5364"/>
    <path id="Tracé_1890" data-name="Tracé 1890" d="M16.84,29.368l1.042-3.931a7.267,7.267,0,1,1,2.91,2.858Zm4.167-2.531.247.149a5.9,5.9,0,1,0-2.021-2l.153.25-.6,2.194Z" transform="translate(-11.176 -9.711)" fill="#fff"/>
    <path id="Tracé_1891" data-name="Tracé 1891" d="M34.256,30.465a1.227,1.227,0,0,0-1.042-.233c-.267.108-.441.531-.615.747a.26.26,0,0,1-.347.073,4.7,4.7,0,0,1-2.347-2.01.292.292,0,0,1,.035-.4,1.566,1.566,0,0,0,.427-.694,1.517,1.517,0,0,0-.181-.812,1.952,1.952,0,0,0-.6-.913.83.83,0,0,0-.9.135,1.826,1.826,0,0,0-.632,1.448,2.017,2.017,0,0,0,.056.458,3.781,3.781,0,0,0,.441,1.017,7.3,7.3,0,0,0,.462.694,7.111,7.111,0,0,0,2,1.854,6.027,6.027,0,0,0,1.247.59,2.733,2.733,0,0,0,1.448.229,1.736,1.736,0,0,0,1.316-.976.858.858,0,0,0,.059-.5C35,30.837,34.534,30.632,34.256,30.465Z" transform="translate(-18.487 -17.237)" fill="#fff" fill-rule="evenodd"/>
  </g>
</svg>
