<svg xmlns="http://www.w3.org/2000/svg" width="25" height="25" viewBox="0 0 25 25">
  <g id="Group_7538" data-name="Group 7538" transform="translate(-81 -4776)">
    <circle id="Ellipse_136" data-name="Ellipse 136" cx="12.5" cy="12.5" r="12.5" transform="translate(81 4776)" fill="#2c5364"/>
    <g id="bxl-youtube" transform="translate(83.268 4777.727)">
      <g id="Group_7537" data-name="Group 7537" transform="translate(2.987 5.7)">
        <path id="Path_1893" data-name="Path 1893" d="M15.983,6.095a1.814,1.814,0,0,0-1.276-1.279A42.447,42.447,0,0,0,9.037,4.5a44.016,44.016,0,0,0-5.67.292A1.853,1.853,0,0,0,2.089,6.08a19.184,19.184,0,0,0-.3,3.485,19.066,19.066,0,0,0,.294,3.485,1.814,1.814,0,0,0,1.276,1.278,42.527,42.527,0,0,0,5.669.316,44.116,44.116,0,0,0,5.67-.292,1.821,1.821,0,0,0,1.279-1.276,19.1,19.1,0,0,0,.3-3.484,18.16,18.16,0,0,0-.295-3.5Zm-8.4,5.649,0-4.344,3.77,2.176Z" transform="translate(-1.787 -4.5)" fill="#fff"/>
      </g>
    </g>
  </g>
</svg>
